<?xml version="1.0" encoding="UTF-8"?> <!-- Generator: Adobe Illustrator 25.1.0, SVG Export Plug-In . SVG Version: 6.00 Build 0) --> <svg xmlns="http://www.w3.org/2000/svg" xmlns:xlink="http://www.w3.org/1999/xlink" version="1.1" id="Calque_1" x="0px" y="0px" viewBox="0 0 453.55 234.57" style="enable-background:new 0 0 453.55 234.57;" xml:space="preserve"> <style type="text/css"> .st0{fill:#FFFFFF;} .st1{fill:#006581;} .st2{fill:#41B1C3;} </style> <path class="st0" d="M160.04,189.42v-25.03c0-3.35-1.13-6.11-3.46-8.44c-2.34-2.33-5.1-3.47-8.46-3.47c-3.39,0-6.17,1.12-8.48,3.44 c-2.32,2.31-3.44,5.08-3.44,8.47v25.03h3.27V173.3h17.21v16.12H160.04z M139.46,170.96v-6.61c0-2.37,0.85-4.41,2.53-6.08 c1.68-1.67,3.73-2.52,6.1-2.52c2.37,0,4.42,0.85,6.08,2.52c1.66,1.68,2.5,3.72,2.5,6.08v6.61H139.46z"></path> <path class="st0" d="M191.39,155.78v-3.41c-1.64-0.46-3.33-0.69-5.04-0.69c-5.33,0-9.7,1.79-13.38,5.46 c-3.68,3.67-5.47,8.05-5.47,13.37c0,5.32,1.79,9.68,5.47,13.34c3.68,3.66,8.06,5.44,13.39,5.44c1.71,0,3.4-0.23,5.04-0.69v-3.41 c-1.61,0.56-3.29,0.83-5.04,0.83c-4.32,0-8.03-1.51-11.04-4.5c-3.02-2.99-4.54-6.7-4.54-11.01c0-4.35,1.52-8.07,4.51-11.06 c3-2.99,6.72-4.51,11.07-4.51C188.1,154.95,189.79,155.23,191.39,155.78z"></path> <path class="st0" d="M209.55,189.43c3.36,0,6.13-1.13,8.46-3.44c2.33-2.31,3.46-5.06,3.46-8.41V152.5h-3.27v25.07 c0,2.38-0.86,4.43-2.56,6.1c-1.68,1.66-3.75,2.5-6.12,2.5c-2.38,0-4.44-0.84-6.11-2.51c-1.68-1.66-2.52-3.71-2.52-6.09V152.5h-3.27 v25.08c0,3.35,1.13,6.1,3.46,8.41C203.42,188.3,206.19,189.43,209.55,189.43z"></path> <path class="st0" d="M250.25,178.58c0.06,2.07-0.37,3.87-1.28,5.4c-2.05,3.36-5.62,5.12-10.72,5.31c-2.32,0.09-4.87-0.47-7.65-1.7 l0.09-6.92c0.46,0.37,1.05,0.79,1.79,1.28c1.31,0.89,2.8,1.33,4.44,1.33c4.37,0,6.55-1.56,6.55-4.67v-0.09 c0-1.43-0.79-2.61-2.38-3.52c-0.86-0.49-2.44-1.07-4.76-1.74c-0.92-0.27-1.91-0.61-2.98-1.01c-3.76-2.1-5.63-5.15-5.63-9.15v-0.27 c0-2.14,0.69-4.12,2.06-5.95c0.82-1.09,1.87-2.02,3.04-2.72c1.78-1.05,3.71-1.61,5.8-1.68c2.59-0.06,5.04,0.43,7.33,1.46v6.51 c-1.6-1.37-3.69-2.09-6.26-2.15c-0.77-0.02-2,0.18-2.7,0.52c-1.63,0.79-2.45,2.04-2.45,3.73c0,2.07,1.53,3.57,4.58,4.48 c0.55,0.18,1.63,0.52,3.25,1.01c2.75,0.82,4.73,2.06,5.93,3.7C249.5,173.41,250.15,175.69,250.25,178.58z"></path> <path class="st0" d="M281.32,176.52c0,3.42-1.19,6.31-3.57,8.67c-2.38,2.36-5.29,3.54-8.7,3.54c-3.42,0-6.32-1.18-8.7-3.54 c-2.38-2.36-3.57-5.25-3.57-8.67V152.5h6.18v24.02c0,1.68,0.59,3.1,1.77,4.28c1.19,1.18,2.64,1.77,4.34,1.76 c1.56-0.01,3.11-0.63,4.23-1.72c1.23-1.18,1.84-2.62,1.84-4.32V152.5h6.18V176.52z"></path> <path class="st0" d="M312.64,188.74h-6.18v-5.68c0-1.74-0.58-3.19-1.75-4.35c-1.17-1.16-2.61-1.74-4.33-1.74h-3.91v11.77h-6.18 V152.5h10.12c3.45,0,6.35,1.18,8.7,3.55c2.35,2.36,3.53,5.27,3.53,8.72c0,3.66-1.37,6.71-4.12,9.15c2.75,2.44,4.12,5.49,4.12,9.15 V188.74z M306.46,164.76c0.03-1.7-0.54-3.14-1.72-4.31c-1.18-1.17-2.62-1.76-4.33-1.76h-3.94v12.09h3.89c1.71,0,3.14-0.58,4.31-1.73 C305.83,167.89,306.42,166.46,306.46,164.76z"></path> <path class="st0" d="M347.4,185.67c-3.27,2.44-6.93,3.67-10.99,3.67c-5.16,0-9.53-1.78-13.1-5.33c-3.57-3.55-5.36-7.91-5.36-13.06 c0-5.16,1.79-9.52,5.36-13.09c3.57-3.57,7.94-5.35,13.1-5.35c2.11,0,4.14,0.35,6.09,1.05v6.74c-1.89-1.07-3.92-1.6-6.09-1.6 c-3.45,0-6.36,1.18-8.73,3.54c-2.37,2.36-3.55,5.27-3.55,8.71c0,3.41,1.19,6.3,3.57,8.66c2.38,2.36,5.28,3.54,8.7,3.54 c1.68,0,3.28-0.34,4.81-1.01v-10.72h6.18V185.67z"></path> <path class="st0" d="M361.32,188.74h-6.18V152.5h6.18V188.74z"></path> <path class="st0" d="M392.44,188.28c-1.99,0.7-4.03,1.05-6.14,1.05c-5.16,0-9.53-1.78-13.1-5.33c-3.57-3.55-5.36-7.91-5.36-13.06 c0-5.16,1.79-9.52,5.36-13.09c3.57-3.57,7.94-5.35,13.1-5.35c2.11,0,4.15,0.35,6.14,1.05v6.79c-1.89-1.1-3.94-1.65-6.14-1.65 c-3.45,0-6.36,1.18-8.73,3.54c-2.37,2.36-3.55,5.27-3.55,8.71c0,3.41,1.19,6.3,3.57,8.66c2.38,2.36,5.28,3.54,8.7,3.54 c2.2,0,4.24-0.55,6.14-1.65V188.28z"></path> <path class="st0" d="M422.3,188.74h-6.28v-14.38h-12.09v14.38h-6.18v-23.98c0-3.45,1.18-6.35,3.55-8.72 c2.37-2.36,5.28-3.55,8.73-3.55c3.42,0,6.32,1.19,8.7,3.57c2.38,2.38,3.57,5.28,3.57,8.69V188.74z M416.03,168.99v-4.18 c0-1.37-0.4-2.74-1.26-3.8c-1.27-1.56-2.87-2.34-4.81-2.32c-1.56,0.01-3.09,0.64-4.2,1.73c-1.22,1.19-1.82,2.63-1.82,4.31v4.27 H416.03z"></path> <path class="st0" d="M446.95,188.74h-16.9V152.5h6.18v30.88h10.72V188.74z"></path> <path class="st1" d="M175.43,107.21c-2.39,14.01-22.38,13.83-24.69-0.19c-0.05-0.29-0.1-0.59-0.15-0.88 c-3.69-20.95-20.26-44.21-51.16-49.98c-6.09-1.14-10.52-6.4-10.37-12.58c0.2-8.26,0.39-16.54,0.58-24.82 c0.17-7.37,6.67-13.15,13.97-12.14c29.49,4.1,63.72,28.45,71.44,69.44C177.11,87,177.09,97.45,175.43,107.21z"></path> <path class="st2" d="M4.11,131.47c1.76-15.01,23.13-15.74,26.29-0.96c0.07,0.34,0.15,0.69,0.23,1.03 c6.04,26.72,23.63,41.44,48.24,46.44c6.21,1.26,10.67,6.73,10.65,13.06c-0.02,7.79-0.05,15.58-0.07,23.38 c-0.02,8.31-7.56,14.56-15.75,13.09c-29.2-5.24-62.14-29.94-68.93-71.08C3.33,147.73,3.19,139.38,4.11,131.47z"></path> <path class="st0" d="M67.25,139.79c-12.39-12.71-12.24-33.03,0.33-45.5c13.16-13.05,34.28-12.62,46.96,1.18 c12.02,13.08,10.53,34.9-3,46.41C98.46,152.99,79.41,152.26,67.25,139.79z"></path> </svg> 